REM DIRINDEX 1\2\4\18,1\2\4\19,1\2\5\20,1\2\5\21,1\2\6\22,1\2\7\23,1\2\8\24,1\2\8\25,1\2\9\26,1\2\10\27,1\3\11\28,1\3\11\29,1\3\11\30,1\3\11\31,1\3\12\32,1\3\12\33,1\3\12\34,1\3\12\35,1\3\13\36,1\3\13\37,1\3\14\38,1\3\14\39,1\3\15\40,1\3\15\41,1\3\15\42,1\3\16\43,1\3\16\44,1\3\17\45,1\3\17\46
REM DIRNAME folder01,folder02,folder03,folder04,folder05,folder06,folder07,folder08,folder09,folder10,folder11,folder12,folder13,folder14,folder15,folder16,folder17,folder18,folder19,folder20,folder21,folder22,folder23,folder24,folder25,folder26,folder27,folder28,folder29,folder30,folder31,folder32,folder33,folder34,folder35,folder36,folder37,folder38,folder39,folder40,folder41,folder42,folder43,folder44,folder45,folder46
TITLE ""
FILE "06.mp3" MP3
  TRACK 01 AUDIO
    TITLE "0:"
    INDEX 01 00:00:00
  TRACK 02 AUDIO
    TITLE "46:cjc023_4796"
    INDEX 01 00:00:17
  TRACK 03 AUDIO
    TITLE "0:"
    INDEX 01 00:01:34
  TRACK 04 AUDIO
    TITLE "45:cjc023_4797"
    INDEX 01 00:01:62
  TRACK 05 AUDIO
    TITLE "0:"
    INDEX 01 00:03:15
  TRACK 06 AUDIO
    TITLE "46:cjc023_4798"
    INDEX 01 00:04:01
  TRACK 07 AUDIO
    TITLE "0:"
    INDEX 01 00:05:32
  TRACK 08 AUDIO
    TITLE "45:cjc023_4799"
    INDEX 01 00:05:56
  TRACK 09 AUDIO
    TITLE "0:"
    INDEX 01 00:07:29
  TRACK 10 AUDIO
    TITLE "46:cjc023_4800"
    INDEX 01 00:08:15
  TRACK 11 AUDIO
    TITLE "0:"
    INDEX 01 00:09:14
  TRACK 12 AUDIO
    TITLE "45:cjc023_4801"
    INDEX 01 00:09:38
  TRACK 13 AUDIO
    TITLE "0:"
    INDEX 01 00:10:59
  TRACK 14 AUDIO
    TITLE "46:cjc023_4802"
    INDEX 01 00:11:44
  TRACK 15 AUDIO
    TITLE "0:"
    INDEX 01 00:12:54
  TRACK 16 AUDIO
    TITLE "45:cjc023_4803"
    INDEX 01 00:13:02
  TRACK 17 AUDIO
    TITLE "0:"
    INDEX 01 00:14:29
  TRACK 18 AUDIO
    TITLE "46:cjc023_4804"
    INDEX 01 00:15:15
  TRACK 19 AUDIO
    TITLE "0:"
    INDEX 01 00:17:39
  TRACK 20 AUDIO
    TITLE "45:cjc023_4805"
    INDEX 01 00:17:63
  TRACK 21 AUDIO
    TITLE "0:"
    INDEX 01 00:18:66
  TRACK 22 AUDIO
    TITLE "46:cjc023_4806"
    INDEX 01 00:19:52
  TRACK 23 AUDIO
    TITLE "0:"
    INDEX 01 00:20:69
  TRACK 24 AUDIO
    TITLE "45:cjc023_4807"
    INDEX 01 00:21:17
  TRACK 25 AUDIO
    TITLE "0:"
    INDEX 01 00:22:62
  TRACK 26 AUDIO
    TITLE "46:cjc023_4808"
    INDEX 01 00:23:50
  TRACK 27 AUDIO
    TITLE "0:"
    INDEX 01 00:24:74
  TRACK 28 AUDIO
    TITLE "45:cjc023_4809"
    INDEX 01 00:25:25
  TRACK 29 AUDIO
    TITLE "0:"
    INDEX 01 00:26:69
  TRACK 30 AUDIO
    TITLE "46:cjc023_4810"
    INDEX 01 00:27:55
  TRACK 31 AUDIO
    TITLE "0:"
    INDEX 01 00:28:72
  TRACK 32 AUDIO
    TITLE "45:cjc023_4811"
    INDEX 01 00:29:21
  TRACK 33 AUDIO
    TITLE "0:"
    INDEX 01 00:30:44
  TRACK 34 AUDIO
    TITLE "46:cjc023_4812"
    INDEX 01 00:31:29
  TRACK 35 AUDIO
    TITLE "0:"
    INDEX 01 00:32:35
  TRACK 36 AUDIO
    TITLE "45:cjc023_4813"
    INDEX 01 00:32:60
  TRACK 37 AUDIO
    TITLE "0:"
    INDEX 01 00:35:17
  TRACK 38 AUDIO
    TITLE "46:cjc023_4814"
    INDEX 01 00:36:09
  TRACK 39 AUDIO
    TITLE "0:"
    INDEX 01 00:37:24
  TRACK 40 AUDIO
    TITLE "45:cjc023_4815"
    INDEX 01 00:37:50
  TRACK 41 AUDIO
    TITLE "0:"
    INDEX 01 00:39:35
  TRACK 42 AUDIO
    TITLE "46:cjc023_4816"
    INDEX 01 00:40:17
  TRACK 43 AUDIO
    TITLE "0:"
    INDEX 01 00:41:57
  TRACK 44 AUDIO
    TITLE "45:cjc023_4817"
    INDEX 01 00:42:04
  TRACK 45 AUDIO
    TITLE "0:"
    INDEX 01 00:43:35
  TRACK 46 AUDIO
    TITLE "46:cjc023_4818"
    INDEX 01 00:44:20
  TRACK 47 AUDIO
    TITLE "0:"
    INDEX 01 00:45:39
  TRACK 48 AUDIO
    TITLE "45:cjc023_4819"
    INDEX 01 00:45:63
  TRACK 49 AUDIO
    TITLE "0:"
    INDEX 01 00:46:74
  TRACK 50 AUDIO
    TITLE "46:cjc023_4820"
    INDEX 01 00:47:66
  TRACK 51 AUDIO
    TITLE "0:"
    INDEX 01 00:49:08
  TRACK 52 AUDIO
    TITLE "45:cjc023_4821"
    INDEX 01 00:49:33
  TRACK 53 AUDIO
    TITLE "0:"
    INDEX 01 00:50:62
  TRACK 54 AUDIO
    TITLE "46:cjc023_4822"
    INDEX 01 00:51:50
  TRACK 55 AUDIO
    TITLE "0:"
    INDEX 01 00:52:59
  TRACK 56 AUDIO
    TITLE "45:cjc023_4823"
    INDEX 01 00:53:09
  TRACK 57 AUDIO
    TITLE "0:"
    INDEX 01 00:54:27
  TRACK 58 AUDIO
    TITLE "46:cjc023_4824"
    INDEX 01 00:55:06
  TRACK 59 AUDIO
    TITLE "0:"
    INDEX 01 00:56:12
  TRACK 60 AUDIO
    TITLE "45:cjc023_4825"
    INDEX 01 00:56:35
  TRACK 61 AUDIO
    TITLE "0:"
    INDEX 01 00:57:50
  TRACK 62 AUDIO
    TITLE "46:cjc023_4826"
    INDEX 01 00:58:36
  TRACK 63 AUDIO
    TITLE "0:"
    INDEX 01 00:59:59
  TRACK 64 AUDIO
    TITLE "45:cjc023_4827"
    INDEX 01 01:00:10
  TRACK 65 AUDIO
    TITLE "0:"
    INDEX 01 01:01:05
  TRACK 66 AUDIO
    TITLE "46:cjc023_4828"
    INDEX 01 01:01:66
  TRACK 67 AUDIO
    TITLE "0:"
    INDEX 01 01:02:69
  TRACK 68 AUDIO
    TITLE "45:cjc023_4829"
    INDEX 01 01:03:18
  TRACK 69 AUDIO
    TITLE "0:"
    INDEX 01 01:04:35
  TRACK 70 AUDIO
    TITLE "46:cjc023_4830"
    INDEX 01 01:05:17
  TRACK 71 AUDIO
    TITLE "0:"
    INDEX 01 01:06:36
  TRACK 72 AUDIO
    TITLE "45:cjc023_4831"
    INDEX 01 01:06:57
  TRACK 73 AUDIO
    TITLE "0:"
    INDEX 01 01:08:09
  TRACK 74 AUDIO
    TITLE "46:cjc023_4832"
    INDEX 01 01:08:68
  TRACK 75 AUDIO
    TITLE "0:"
    INDEX 01 01:10:30
  TRACK 76 AUDIO
    TITLE "45:cjc023_4833"
    INDEX 01 01:10:49
  TRACK 77 AUDIO
    TITLE "0:"
    INDEX 01 01:12:17
  TRACK 78 AUDIO
    TITLE "46:cjc023_4834"
    INDEX 01 01:12:73
  TRACK 79 AUDIO
    TITLE "0:"
    INDEX 01 01:14:74
  TRACK 80 AUDIO
    TITLE "45:cjc023_4835"
    INDEX 01 01:15:27
  TRACK 81 AUDIO
    TITLE "0:"
    INDEX 01 01:16:65
  TRACK 82 AUDIO
    TITLE "46:cjc023_4836"
    INDEX 01 01:17:53
  TRACK 83 AUDIO
    TITLE "0:"
    INDEX 01 01:19:17
  TRACK 84 AUDIO
    TITLE "45:cjc023_4837"
    INDEX 01 01:19:42
  TRACK 85 AUDIO
    TITLE "0:"
    INDEX 01 01:21:21
  TRACK 86 AUDIO
    TITLE "46:cjc023_4838"
    INDEX 01 01:22:01
  TRACK 87 AUDIO
    TITLE "0:"
    INDEX 01 01:23:15
  TRACK 88 AUDIO
    TITLE "45:cjc023_4839"
    INDEX 01 01:23:34
  TRACK 89 AUDIO
    TITLE "0:"
    INDEX 01 01:24:36
  TRACK 90 AUDIO
    TITLE "46:cjc023_4840"
    INDEX 01 01:25:27
  TRACK 91 AUDIO
    TITLE "0:"
    INDEX 01 01:27:06
  TRACK 92 AUDIO
    TITLE "45:cjc023_4841"
    INDEX 01 01:27:30
  TRACK 93 AUDIO
    TITLE "0:"
    INDEX 01 01:28:39
  TRACK 94 AUDIO
    TITLE "46:cjc023_4842"
    INDEX 01 01:29:23
  TRACK 95 AUDIO
    TITLE "0:"
    INDEX 01 01:31:36
  TRACK 96 AUDIO
    TITLE "45:cjc023_4843"
    INDEX 01 01:31:61
  TRACK 97 AUDIO
    TITLE "0:"
    INDEX 01 01:32:74
  TRACK 98 AUDIO
    TITLE "46:cjc023_4844"
    INDEX 01 01:33:64
  TRACK 99 AUDIO
    TITLE "0:"
    INDEX 01 01:35:35
  TRACK 100 AUDIO
    TITLE "45:cjc023_4845"
    INDEX 01 01:35:57
  TRACK 101 AUDIO
    TITLE "0:"
    INDEX 01 01:36:74
  TRACK 102 AUDIO
    TITLE "46:cjc023_4846"
    INDEX 01 01:37:58
  TRACK 103 AUDIO
    TITLE "0:"
    INDEX 01 01:39:17
  TRACK 104 AUDIO
    TITLE "45:cjc023_4847"
    INDEX 01 01:39:39
  TRACK 105 AUDIO
    TITLE "0:"
    INDEX 01 01:42:24
  TRACK 106 AUDIO
    TITLE "46:cjc023_4848"
    INDEX 01 01:43:07
  TRACK 107 AUDIO
    TITLE "0:"
    INDEX 01 01:44:26
  TRACK 108 AUDIO
    TITLE "45:cjc023_4849"
    INDEX 01 01:44:54
  TRACK 109 AUDIO
    TITLE "0:"
    INDEX 01 01:47:54
  TRACK 110 AUDIO
    TITLE "46:cjc023_4850"
    INDEX 01 01:48:36
  TRACK 111 AUDIO
    TITLE "0:"
    INDEX 01 01:49:63
  TRACK 112 AUDIO
    TITLE "45:cjc023_4851"
    INDEX 01 01:50:11
  TRACK 113 AUDIO
    TITLE "0:"
    INDEX 01 01:51:74
  TRACK 114 AUDIO
    TITLE "46:cjc023_4852"
    INDEX 01 01:52:57
  TRACK 115 AUDIO
    TITLE "0:"
    INDEX 01 01:54:21
  TRACK 116 AUDIO
    TITLE "45:cjc023_4853"
    INDEX 01 01:54:42
  TRACK 117 AUDIO
    TITLE "0:"
    INDEX 01 01:55:65
  TRACK 118 AUDIO
    TITLE "46:cjc023_4854"
    INDEX 01 01:56:49
  TRACK 119 AUDIO
    TITLE "0:"
    INDEX 01 01:58:11
  TRACK 120 AUDIO
    TITLE "45:cjc023_4855"
    INDEX 01 01:58:34
  TRACK 121 AUDIO
    TITLE "0:"
    INDEX 01 02:00:08
  TRACK 122 AUDIO
    TITLE "46:cjc023_4856"
    INDEX 01 02:00:67
  TRACK 123 AUDIO
    TITLE "0:"
    INDEX 01 02:03:00
  TRACK 124 AUDIO
    TITLE "45:cjc023_4857"
    INDEX 01 02:03:24
  TRACK 125 AUDIO
    TITLE "0:"
    INDEX 01 02:04:66
  TRACK 126 AUDIO
    TITLE "46:cjc023_4858"
    INDEX 01 02:05:52
  TRACK 127 AUDIO
    TITLE "0:"
    INDEX 01 02:07:35
  TRACK 128 AUDIO
    TITLE "45:cjc023_4859"
    INDEX 01 02:07:63
  TRACK 129 AUDIO
    TITLE "0:"
    INDEX 01 02:09:03
